<?xml version="1.0" standalone="no"?>
<!DOCTYPE svg PUBLIC "-//W3C//DTD SVG 20010904//EN"
 "http://www.w3.org/TR/2001/REC-SVG-20010904/DTD/svg10.dtd">
<svg version="1.0" xmlns="http://www.w3.org/2000/svg"
 width="100.000000pt" height="100.000000pt" viewBox="0 0 100.000000 100.000000"
 preserveAspectRatio="xMidYMid meet">
<metadata>
Created by potrace 1.11, written by Peter Selinger 2001-2013
</metadata>
<g transform="translate(0.000000,100.000000) scale(0.100000,-0.100000)"
fill="#000000" stroke="none">
<path d="M423 835 c-13 -9 -23 -22 -23 -29 0 -7 -18 -23 -41 -35 l-41 -23 25
-26 c16 -16 37 -25 59 -26 57 -2 72 -17 70 -72 -2 -87 -1 -87 -18 -73 -12 10
-16 9 -21 -9 -3 -12 -9 -22 -15 -22 -5 0 -5 -7 1 -17 10 -20 11 -24 11 -58 0
-13 10 -34 22 -45 l22 -20 -19 -38 c-11 -20 -39 -55 -62 -78 -24 -22 -43 -46
-43 -52 0 -7 -30 -10 -94 -9 l-95 1 -24 71 c-14 38 -42 121 -62 183 -30 89
-42 112 -56 112 -11 0 -19 -1 -19 -2 0 -2 31 -93 68 -203 l67 -200 240 0 c216
-1 241 1 257 17 19 19 33 24 23 8 -3 -5 9 -19 27 -30 26 -17 46 -20 95 -18 53
3 70 10 120 45 69 48 91 89 97 177 3 54 0 70 -21 105 -20 33 -33 43 -75 56
-28 8 -59 15 -67 15 -9 0 -29 16 -44 35 -15 19 -53 52 -85 74 -31 22 -68 54
-82 71 -14 18 -41 53 -60 79 -31 39 -41 46 -75 49 -25 2 -49 -3 -62 -13z m501
-417 c18 -57 20 -88 6 -88 -5 0 -10 10 -10 23 0 12 -14 46 -30 76 -17 30 -30
56 -30 57 0 2 11 -1 24 -7 16 -8 29 -28 40 -61z m-358 -152 c1 -30 -50 -98
-58 -76 -1 5 -22 11 -46 12 -23 1 -41 5 -40 9 6 16 113 88 128 86 9 -2 15 -14
16 -31z m34 -56 c0 -5 -5 -10 -11 -10 -5 0 -7 5 -4 10 3 6 8 10 11 10 2 0 4
-4 4 -10z"/>
</g>
</svg>
